<?xml version="1.0" encoding="UTF-8"?><svg id="_レイヤー_1" xmlns="http://www.w3.org/2000/svg" width="942.09473" height="190.91797" viewBox="0 0 942.09473 190.91797"><defs><style>.cls-1{stroke-miterlimit:10;stroke-width:12.28571px;}.cls-1,.cls-2,.cls-3{stroke:#09428c;}.cls-1,.cls-2,.cls-3,.cls-4,.cls-5,.cls-6{fill:none;}.cls-2{stroke-width:7.30624px;}.cls-2,.cls-4,.cls-5,.cls-6{stroke-linecap:round;stroke-linejoin:round;}.cls-7{fill:#d1331e;}.cls-8{fill:#444;}.cls-9{fill:#09428c;}.cls-3{stroke-width:2px;}.cls-4{stroke-width:4.93495px;}.cls-4,.cls-5,.cls-6{stroke:#fff;}.cls-5{stroke-width:13.62948px;}.cls-6{stroke-width:15px;}</style></defs><g><path class="cls-6" d="M44.44043,85.47461c1.83838,0,3.10205-.34473,4.02148-1.26367,1.95312-1.49365,8.96191-.57422,9.76611,1.03418,.91943,1.49365-1.14893,3.90625-3.10205,4.48145-.91943,.11426-2.9873,.22949-6.31934,.11426-6.66455-.11426-6.43457-.45898-5.40039,6.7793l.57422,4.25098h4.25146c7.69824,0,22.17529,9.07715,26.42676,16.31543,2.06787,3.90723,3.90625,13.09863,2.9873,17.69434-.91943,4.59668-9.53662,15.39648-14.24756,16.77539-1.72363,.34473-7.46826-.91895-7.46826-1.83789,0-.11523,.68945-.80469,2.18311-1.95312,1.26367-1.03418,2.18311-2.75781,2.4126-5.1709,.57471-4.71094-.91895-21.48633-2.29785-26.31152-.57422-2.52832-1.72363-4.71094-3.56201-6.66406-1.83838-2.29785-2.75732-3.5625-2.75732-3.79199,.22998-.45996-.22998-.91895-.8042-.91895-.57471,0-.91943,.11426-1.72363,.57422l-4.5957,2.06836-.34473,11.83496c-.22998,5.51465-.45996,9.07617-.80469,10.57031-.22949,1.6084-.91895,3.2168-1.95312,4.71094-5.51514,7.92773-17.57959,9.07715-23.78418,4.36621-3.10205-2.41309-4.5957-5.28516-4.5957-8.73242,0-6.31934,4.71094-12.86914,14.24756-19.41797,2.18311-1.37891,3.33203-2.75781,3.44678-3.79199s.11475-4.25098-.57422-9.30664l-.80469-7.12402c-11.03027,0-16.89014-.22949-17.69434-.57422-.68945-.68945-.11475-1.26367,1.72363-1.83789,.8042-.34521,2.52783-.34521,5.28516-.34521,2.75781,0,5.97461-.45947,9.99609-1.03369,0-6.08984,.11523-9.7666,.45996-10.91553,.57422-1.37891,3.90625-1.03418,6.08936,.91895,4.36621,3.79199,6.54932,6.08984,6.54932,7.23877-.11475,.91895,.68945,1.26367,2.41309,1.26367Zm-12.06445,30.44824c-.8042,.34473-3.44727,2.64258-8.15771,7.12402,0,4.5957,.91895,8.3877,2.52783,11.375,.8042,1.72363,1.83789,2.29785,2.87207,1.72363,2.29834-1.49414,3.33203-5.86035,3.33203-13.09863,0-4.71094-.11475-7.12402-.57422-7.12402Zm39.5249-33.55029c1.60889,0,7.92822,1.26416,11.14551,4.59619,1.49365,1.49316,2.4126,3.10254,2.52783,4.5957-.11523,3.2168-2.98779,8.3877-4.94092,9.07715-4.36621,1.49316-10.80029-2.18359-10.68555-6.08984-.11475-1.03418-.68945-2.18262-1.83838-2.9873-2.29785-1.72363-1.6084-5.40039,.8042-7.5835,1.26416-1.14893,2.18311-1.6084,2.9873-1.6084Z"/><path class="cls-8" d="M44.44043,85.47461c1.83838,0,3.10205-.34473,4.02148-1.26367,1.95312-1.49365,8.96191-.57422,9.76611,1.03418,.91943,1.49365-1.14893,3.90625-3.10205,4.48145-.91943,.11426-2.9873,.22949-6.31934,.11426-6.66455-.11426-6.43457-.45898-5.40039,6.7793l.57422,4.25098h4.25146c7.69824,0,22.17529,9.07715,26.42676,16.31543,2.06787,3.90723,3.90625,13.09863,2.9873,17.69434-.91943,4.59668-9.53662,15.39648-14.24756,16.77539-1.72363,.34473-7.46826-.91895-7.46826-1.83789,0-.11523,.68945-.80469,2.18311-1.95312,1.26367-1.03418,2.18311-2.75781,2.4126-5.1709,.57471-4.71094-.91895-21.48633-2.29785-26.31152-.57422-2.52832-1.72363-4.71094-3.56201-6.66406-1.83838-2.29785-2.75732-3.5625-2.75732-3.79199,.22998-.45996-.22998-.91895-.8042-.91895-.57471,0-.91943,.11426-1.72363,.57422l-4.5957,2.06836-.34473,11.83496c-.22998,5.51465-.45996,9.07617-.80469,10.57031-.22949,1.6084-.91895,3.2168-1.95312,4.71094-5.51514,7.92773-17.57959,9.07715-23.78418,4.36621-3.10205-2.41309-4.5957-5.28516-4.5957-8.73242,0-6.31934,4.71094-12.86914,14.24756-19.41797,2.18311-1.37891,3.33203-2.75781,3.44678-3.79199s.11475-4.25098-.57422-9.30664l-.80469-7.12402c-11.03027,0-16.89014-.22949-17.69434-.57422-.68945-.68945-.11475-1.26367,1.72363-1.83789,.8042-.34521,2.52783-.34521,5.28516-.34521,2.75781,0,5.97461-.45947,9.99609-1.03369,0-6.08984,.11523-9.7666,.45996-10.91553,.57422-1.37891,3.90625-1.03418,6.08936,.91895,4.36621,3.79199,6.54932,6.08984,6.54932,7.23877-.11475,.91895,.68945,1.26367,2.41309,1.26367Zm-12.06445,30.44824c-.8042,.34473-3.44727,2.64258-8.15771,7.12402,0,4.5957,.91895,8.3877,2.52783,11.375,.8042,1.72363,1.83789,2.29785,2.87207,1.72363,2.29834-1.49414,3.33203-5.86035,3.33203-13.09863,0-4.71094-.11475-7.12402-.57422-7.12402Zm39.5249-33.55029c1.60889,0,7.92822,1.26416,11.14551,4.59619,1.49365,1.49316,2.4126,3.10254,2.52783,4.5957-.11523,3.2168-2.98779,8.3877-4.94092,9.07715-4.36621,1.49316-10.80029-2.18359-10.68555-6.08984-.11475-1.03418-.68945-2.18262-1.83838-2.9873-2.29785-1.72363-1.6084-5.40039,.8042-7.5835,1.26416-1.14893,2.18311-1.6084,2.9873-1.6084Z"/></g><g><g><path class="cls-6" d="M641.97803,92.80029c-.1875,.84277-1.31152,3.37158-3.74707,7.49268l-3.65234,6.18164-3.18457-1.49902c-22.29102-2.24805-24.63184-2.06055-26.03711-1.9668-2.62207,.1875-5.24512,.65527-6.08789,1.21777-.37402,.28125-.74902,.74902-1.03027,1.21777-.46777,.84277-1.68555,3.93359-1.12402,4.77637,.375,.28125,2.62305,0,6.74414-1.12402,8.33496-2.24805,22.10352-2.06055,28.09766,.46875,5.99414,2.52832,5.43164,3.55859,1.31055,2.62207s-12.83105-1.9668-13.86133-1.5918c-2.80957,1.0293,1.31152,3.46484,2.90332,4.40137,.84277,.46875,1.49902,.84277,1.9668,1.31152,.46875,.46777,.65625,.93652,.28125,1.21777-.65527,.74902,2.06055,3.55859,4.49512,4.12012l2.1543,1.21777c.375,.28125,.375,.5625,.28125,.84277-.09375,.375,0,.46875,.46875,.5625,1.0293,.09375,6.46191,4.87012,5.80664,5.61914-.65625,.74902-6.55664-1.5918-8.52344-3.93359-1.12402-1.12402-2.99707-1.68555-5.71289-1.68555h-3.93359l2.43457,1.31152c1.59277,.84277,2.5293,1.5918,2.5293,2.80957,0,2.34082,.375,2.80957,4.96387,4.12109,5.43262,1.5918,7.96094,2.90332,7.58594,3.83984-.37402,.37402-1.49805,.37402-3.37109-.28125s-3.74609-.93652-5.71387-.93652c-4.02637,0-4.49512,1.21777-4.49512,6.93066,0,2.80957,.1875,4.49609,.28125,4.96387,.09375,.375,.74902,.65527,1.68555,.65527,1.03027,0,2.90332,0,5.61914,.375,2.7168,.375,4.21484,.375,4.58984,.28125,.37402,0,.37402-.5625,.1875-1.49902-.1875-1.12402,0-1.7793,.84277-2.06055,1.5918-.56152,7.30469,1.68652,7.96094,3.09082,.65527,1.40527,.28027,2.43555-1.59277,2.90332-.93652,.375-2.24707,.46875-3.93359,.46875-1.5918,.09375-4.58887,.1875-8.70996,.1875-4.02734,0-6.46191,.37402-6.93066,1.03027-1.03027,1.4043-6.83691,1.5918-11.23926,.09375-2.06055-.75-4.77637-1.12402-8.14844-1.12402-3.37109,0-6.08789-.28125-8.52246-.84277-2.3418-.5625-3.55957-1.31152-3.83984-1.87402-.09375-.09375,.28027-.28027,1.03027-.37402,.74902-.09375,1.87305-.28125,3.46484-.28125l15.92188,.375v-4.12109c0-4.87012-.56152-7.39941-1.87305-7.30566-.09375,.1875-.74902,.1875-1.68555,.5625-1.03027,.37402-2.62207,.46777-4.87012,.46777s-4.21484-.28125-5.90039-.84277c-3.37207-1.12402-3.46582-1.21777-1.49902-2.5293,1.03027-.56152,2.62305-.84277,5.05762-.84277,4.58984,.28125,9.74023-1.49805,10.39648-2.06055,.65527-.56152,.46777-4.77637,.09375-5.33789-.09375-.28125-.46875-.28125-1.03027-.1875-3.93359,.93652-6.36914,1.49805-7.77441,1.49805-2.62207,0-6.46191-1.49805-6.46191-2.24707,0-.46875,1.12402-1.49902,3.09082-3.27832,2.1543-1.87305,4.12109-3.93359,6.08789-6.08789,2.06055-2.24805,2.90332-3.37207,2.52832-3.37207-.37402,0-1.12402,.1875-2.24805,.46875-1.12305,.28125-2.90332,.46777-4.96387,.46777-2.15332,0-3.65234-.18652-4.21387-.46777-1.40527-.5625-2.1543-.1875-2.81055,2.3418-1.68555,4.77637-4.68262,9.55273-8.70996,14.98535-4.30859,5.80664-15.35938,23.88281-15.35938,24.81934,0,1.03027-1.31152,3.46484-2.24805,3.46484-1.03027,0-5.99414-1.87305-5.15137-3.37109,.375-.75,.56152-1.87402,.74902-3.37207,.1875-1.40527,.28125-2.52832,1.03027-3.09082,.65527-.56152,1.31152-1.87305,1.87305-4.02734,.5625-2.06055,2.3418-5.43164,4.87012-10.30273,4.96387-9.55273,11.80176-25.09961,14.8916-33.62305,1.49902-4.12109,2.7168-6.64941,3.74707-7.67969,5.43164-5.05762,25.75586-4.96387,50.10742-2.90381,1.49805,.84326,2.24707,1.59229,2.06055,2.3418Zm-13.95605-.1875c-1.03027,0-20.41699,1.21777-24.25684,1.9668-3.83984,.74951-4.40234,3.93408-4.49609,4.77686,0,.09375,.375,.1875,1.03027,.1875,.5625,0,1.31152,0,2.3418-.09375,.93652-.09375,2.71582-.28125,5.24512-.75,2.43457-.46777,16.20215-.18652,19.66797-.18652,2.43555,0,1.40527-4.49609,1.12402-5.43262,.09375-.37451-.1875-.46826-.65625-.46826Zm-10.20801,22.57178c-.28125,0-1.03027,.84277-2.24805,2.43457l-2.1543,3.18457,3.74609-.37402c2.1543-.09375,3.18457-.28125,3.18457-.65625l-2.52832-4.58887Z"/><path class="cls-6" d="M667.91455,118.83691c-3.18359,0-5.43164-.09375-6.55566-.28027-2.3418-.46875-6.08789-2.81055-4.02734-3.27832,.375-.09375,1.49805-.09375,3.09082-.1875,1.68555-.09375,3.09082-.1875,4.12109-.375,4.87012,0,14.7041-.18652,15.45312-.37402,.28125-.28125-3.65234-10.30273-5.52539-15.92188-.46875-1.68604-.5625-2.71631-.28125-3.27832,.28125-.65576,.5625-1.03027,1.21777-.93652,1.31152,0,8.05469,3.09082,9.92773,4.87012,.84277,.93652,2.52832,9.74023,2.52832,11.23926,0,2.80957,.75,2.99707,3.18457,2.90332,8.99121-.375,10.20898-1.59277,11.61426-3.74609,2.62207-4.30859,3.46484-4.68359,6.64941-2.06055,3.09082,2.62207,2.90332,4.58887-.46875,7.02441-1.68555,1.12402-3.55859,2.06055-5.80664,2.52832-1.9668,.375-3.18457,.5625-11.42578,1.21777-.5625,.09375-.5625,.56152-.46875,.93652l3.46582,8.89746c4.21387,7.39941,0,7.02441-.84277,7.02441l-5.99414-1.40527c-10.86523-1.5918-15.92285,6.93164-13.76855,11.70801,4.40234,8.33496,15.54785,8.80371,17.6084,8.24121,1.12402-.18652,2.06055-.56152,2.99707-1.0293,1.7793-1.12402,1.9668-1.31152,4.49512,0,2.3418,1.31055,2.80957,1.68555,.1875,3.27734-1.31152,.84277-4.40234,1.31152-9.27246,1.21777-11.05176-.09375-19.29297-3.09082-25.00684-8.14844-3.46484-2.99707-3.83984-6.18164-1.12402-10.20898,2.81055-4.12012,4.02734-5.15039,7.68066-7.21094,3.55859-2.06055,4.02734-2.1543,9.74023-1.59277,2.99707,.375,5.43262,.65625,7.49219,1.31152l-1.0293-2.71582c-5.15137-9.64746-2.9043-5.24512-5.15137-9.64746h-14.70508Z"/><path class="cls-6" d="M772.80713,149.55762c-2.7168,0-7.11816-.09375-10.39648-3.65332-2.43555-2.71582-3.18457-4.87012-4.21484-9.74023-1.12402-4.77637-1.4043-6.46289-6.18164-6.18164-4.87012,.375-6.55566,2.43555-10.30176,8.05469-1.87305,2.80957-2.24805,7.02441-8.61719,12.36328-1.49805-1.31152-6.55566-2.62305-7.86719-4.21484,1.68555-3.74609,4.58984-9.08496,8.42969-15.54785,3.93359-6.55566,6.18164-10.67676,7.02441-12.26855,.84277-1.68652,2.52832-4.30859,5.05762-7.86719,2.52832-3.65332,4.58887-6.65039,5.90039-9.08496,1.31055-2.43555,2.43457-4.12109,3.37109-5.24512,.93652-1.03027,1.59277-1.68604,1.59277-1.9668,.09375-.37451,.46777-.37451,.74902-.37451,.65527,0,.65527,.09326,1.49805,1.03027,.375,.56152,.84375,.93652,1.49902,1.31104,6.46289,5.15137,6.36914,7.39941-.28125,17.88867-3.37109,5.24512-5.24414,8.33594-5.71289,9.27246-.56152,.93652-.46875,1.68555,0,2.1543,1.68555,.74902,7.02441,6.18066,8.05469,7.86719,.56152,.93652,1.12402,2.43457,1.68555,4.96387,.5625,2.34082,.93652,3.83984,1.40527,4.49512,.84277,1.40527,3.55859,2.24805,4.58887,1.03027,.375-.46777,1.49902-2.52832,3.37207-5.99414,3.65234-6.93066,16.10938-14.3291,17.60742-1.21777,.375,3.09082-12.64355,12.92578-18.2627,12.92578Z"/></g><g><path class="cls-8" d="M641.97803,92.80029c-.1875,.84277-1.31152,3.37158-3.74707,7.49268l-3.65234,6.18164-3.18457-1.49902c-22.29102-2.24805-24.63184-2.06055-26.03711-1.9668-2.62207,.1875-5.24512,.65527-6.08789,1.21777-.37402,.28125-.74902,.74902-1.03027,1.21777-.46777,.84277-1.68555,3.93359-1.12402,4.77637,.375,.28125,2.62305,0,6.74414-1.12402,8.33496-2.24805,22.10352-2.06055,28.09766,.46875,5.99414,2.52832,5.43164,3.55859,1.31055,2.62207s-12.83105-1.9668-13.86133-1.5918c-2.80957,1.0293,1.31152,3.46484,2.90332,4.40137,.84277,.46875,1.49902,.84277,1.9668,1.31152,.46875,.46777,.65625,.93652,.28125,1.21777-.65527,.74902,2.06055,3.55859,4.49512,4.12012l2.1543,1.21777c.375,.28125,.375,.5625,.28125,.84277-.09375,.375,0,.46875,.46875,.5625,1.0293,.09375,6.46191,4.87012,5.80664,5.61914-.65625,.74902-6.55664-1.5918-8.52344-3.93359-1.12402-1.12402-2.99707-1.68555-5.71289-1.68555h-3.93359l2.43457,1.31152c1.59277,.84277,2.5293,1.5918,2.5293,2.80957,0,2.34082,.375,2.80957,4.96387,4.12109,5.43262,1.5918,7.96094,2.90332,7.58594,3.83984-.37402,.37402-1.49805,.37402-3.37109-.28125s-3.74609-.93652-5.71387-.93652c-4.02637,0-4.49512,1.21777-4.49512,6.93066,0,2.80957,.1875,4.49609,.28125,4.96387,.09375,.375,.74902,.65527,1.68555,.65527,1.03027,0,2.90332,0,5.61914,.375,2.7168,.375,4.21484,.375,4.58984,.28125,.37402,0,.37402-.5625,.1875-1.49902-.1875-1.12402,0-1.7793,.84277-2.06055,1.5918-.56152,7.30469,1.68652,7.96094,3.09082,.65527,1.40527,.28027,2.43555-1.59277,2.90332-.93652,.375-2.24707,.46875-3.93359,.46875-1.5918,.09375-4.58887,.1875-8.70996,.1875-4.02734,0-6.46191,.37402-6.93066,1.03027-1.03027,1.4043-6.83691,1.5918-11.23926,.09375-2.06055-.75-4.77637-1.12402-8.14844-1.12402-3.37109,0-6.08789-.28125-8.52246-.84277-2.3418-.5625-3.55957-1.31152-3.83984-1.87402-.09375-.09375,.28027-.28027,1.03027-.37402,.74902-.09375,1.87305-.28125,3.46484-.28125l15.92188,.375v-4.12109c0-4.87012-.56152-7.39941-1.87305-7.30566-.09375,.1875-.74902,.1875-1.68555,.5625-1.03027,.37402-2.62207,.46777-4.87012,.46777s-4.21484-.28125-5.90039-.84277c-3.37207-1.12402-3.46582-1.21777-1.49902-2.5293,1.03027-.56152,2.62305-.84277,5.05762-.84277,4.58984,.28125,9.74023-1.49805,10.39648-2.06055,.65527-.56152,.46777-4.77637,.09375-5.33789-.09375-.28125-.46875-.28125-1.03027-.1875-3.93359,.93652-6.36914,1.49805-7.77441,1.49805-2.62207,0-6.46191-1.49805-6.46191-2.24707,0-.46875,1.12402-1.49902,3.09082-3.27832,2.1543-1.87305,4.12109-3.93359,6.08789-6.08789,2.06055-2.24805,2.90332-3.37207,2.52832-3.37207-.37402,0-1.12402,.1875-2.24805,.46875-1.12305,.28125-2.90332,.46777-4.96387,.46777-2.15332,0-3.65234-.18652-4.21387-.46777-1.40527-.5625-2.1543-.1875-2.81055,2.3418-1.68555,4.77637-4.68262,9.55273-8.70996,14.98535-4.30859,5.80664-15.35938,23.88281-15.35938,24.81934,0,1.03027-1.31152,3.46484-2.24805,3.46484-1.03027,0-5.99414-1.87305-5.15137-3.37109,.375-.75,.56152-1.87402,.74902-3.37207,.1875-1.40527,.28125-2.52832,1.03027-3.09082,.65527-.56152,1.31152-1.87305,1.87305-4.02734,.5625-2.06055,2.3418-5.43164,4.87012-10.30273,4.96387-9.55273,11.80176-25.09961,14.8916-33.62305,1.49902-4.12109,2.7168-6.64941,3.74707-7.67969,5.43164-5.05762,25.75586-4.96387,50.10742-2.90381,1.49805,.84326,2.24707,1.59229,2.06055,2.3418Zm-13.95605-.1875c-1.03027,0-20.41699,1.21777-24.25684,1.9668-3.83984,.74951-4.40234,3.93408-4.49609,4.77686,0,.09375,.375,.1875,1.03027,.1875,.5625,0,1.31152,0,2.3418-.09375,.93652-.09375,2.71582-.28125,5.24512-.75,2.43457-.46777,16.20215-.18652,19.66797-.18652,2.43555,0,1.40527-4.49609,1.12402-5.43262,.09375-.37451-.1875-.46826-.65625-.46826Zm-10.20801,22.57178c-.28125,0-1.03027,.84277-2.24805,2.43457l-2.1543,3.18457,3.74609-.37402c2.1543-.09375,3.18457-.28125,3.18457-.65625l-2.52832-4.58887Z"/><path class="cls-8" d="M667.91455,118.83691c-3.18359,0-5.43164-.09375-6.55566-.28027-2.3418-.46875-6.08789-2.81055-4.02734-3.27832,.375-.09375,1.49805-.09375,3.09082-.1875,1.68555-.09375,3.09082-.1875,4.12109-.375,4.87012,0,14.7041-.18652,15.45312-.37402,.28125-.28125-3.65234-10.30273-5.52539-15.92188-.46875-1.68604-.5625-2.71631-.28125-3.27832,.28125-.65576,.5625-1.03027,1.21777-.93652,1.31152,0,8.05469,3.09082,9.92773,4.87012,.84277,.93652,2.52832,9.74023,2.52832,11.23926,0,2.80957,.75,2.99707,3.18457,2.90332,8.99121-.375,10.20898-1.59277,11.61426-3.74609,2.62207-4.30859,3.46484-4.68359,6.64941-2.06055,3.09082,2.62207,2.90332,4.58887-.46875,7.02441-1.68555,1.12402-3.55859,2.06055-5.80664,2.52832-1.9668,.375-3.18457,.5625-11.42578,1.21777-.5625,.09375-.5625,.56152-.46875,.93652l3.46582,8.89746c4.21387,7.39941,0,7.02441-.84277,7.02441l-5.99414-1.40527c-10.86523-1.5918-15.92285,6.93164-13.76855,11.70801,4.40234,8.33496,15.54785,8.80371,17.6084,8.24121,1.12402-.18652,2.06055-.56152,2.99707-1.0293,1.7793-1.12402,1.9668-1.31152,4.49512,0,2.3418,1.31055,2.80957,1.68555,.1875,3.27734-1.31152,.84277-4.40234,1.31152-9.27246,1.21777-11.05176-.09375-19.29297-3.09082-25.00684-8.14844-3.46484-2.99707-3.83984-6.18164-1.12402-10.20898,2.81055-4.12012,4.02734-5.15039,7.68066-7.21094,3.55859-2.06055,4.02734-2.1543,9.74023-1.59277,2.99707,.375,5.43262,.65625,7.49219,1.31152l-1.0293-2.71582c-5.15137-9.64746-2.9043-5.24512-5.15137-9.64746h-14.70508Z"/><path class="cls-8" d="M772.80713,149.55762c-2.7168,0-7.11816-.09375-10.39648-3.65332-2.43555-2.71582-3.18457-4.87012-4.21484-9.74023-1.12402-4.77637-1.4043-6.46289-6.18164-6.18164-4.87012,.375-6.55566,2.43555-10.30176,8.05469-1.87305,2.80957-2.24805,7.02441-8.61719,12.36328-1.49805-1.31152-6.55566-2.62305-7.86719-4.21484,1.68555-3.74609,4.58984-9.08496,8.42969-15.54785,3.93359-6.55566,6.18164-10.67676,7.02441-12.26855,.84277-1.68652,2.52832-4.30859,5.05762-7.86719,2.52832-3.65332,4.58887-6.65039,5.90039-9.08496,1.31055-2.43555,2.43457-4.12109,3.37109-5.24512,.93652-1.03027,1.59277-1.68604,1.59277-1.9668,.09375-.37451,.46777-.37451,.74902-.37451,.65527,0,.65527,.09326,1.49805,1.03027,.375,.56152,.84375,.93652,1.49902,1.31104,6.46289,5.15137,6.36914,7.39941-.28125,17.88867-3.37109,5.24512-5.24414,8.33594-5.71289,9.27246-.56152,.93652-.46875,1.68555,0,2.1543,1.68555,.74902,7.02441,6.18066,8.05469,7.86719,.56152,.93652,1.12402,2.43457,1.68555,4.96387,.5625,2.34082,.93652,3.83984,1.40527,4.49512,.84277,1.40527,3.55859,2.24805,4.58887,1.03027,.375-.46777,1.49902-2.52832,3.37207-5.99414,3.65234-6.93066,16.10938-14.3291,17.60742-1.21777,.375,3.09082-12.64355,12.92578-18.2627,12.92578Z"/></g></g><path class="cls-9" d="M511.24854,106.50195c5.94727,1.77051,2.84473,3.22949,8.96582,5.0166-1.57324,.0293,.94336,1.13477,.49707,5.98242l-4.5791,49.68652c-.20801,2.25098-3.13965,5.64746-5.39062,5.43945-8.9248,.22461-8.73535,.06738-12.37109-.26758-1.38477-.12793-2.33984-4.92871-2.22852-6.1416l4.89844-53.14941c-16.24219,11.42383-32.61133,10.96289-52.13379,1.13184,5.41699-1.94531,10.36035-2.53711,13.18066-4.72168,18.58203-6.49316,25.32324-9.53809,35.18652-18.05762,12.05273-9.53906,16.55469-22.39355,24.98828-32.44141,1.75-1.93359,4.28516-2.92285,6.70898-2.69922,8.62207,3.06445,7.5332,5.4082,17.38281,8.41113-9.18555,20.10547-20.40234,28.15039-35.10547,41.81055Z"/><path class="cls-9" d="M390.33691,87.91553l2.24023,34.97119c1.88672,27.35352,1.80859,43.44922-.44141,48.29883-2.08496,4.01611-6.39844,4.42285-12.71777,1.62256l-6.95703-3.18604-2.78809-20.08984c-1.31934-10.66797-2.96094-23.7959-4.71484-39.396l-1.94629-19.71582-18.68652,1.89795c-13.14844,1.22803-21.18652,1.39453-23.9209,.28418-2.7334-1.11133-4.42871-2.06543-4.45703-2.68262-.04785-1.0293,32.11426-6.02783,41.37793-6.45752l5.35254-.24805,.58105-9.72461c.50391-11.37061,2.55957-16.00488,8.1416-20.18457,3.79785-2.65088,8.11133-3.05762,12.93262-1.4248,1.47852,.75684,2.33301,1.3374,2.81055,2.75879l1.2793,27.58789,13.5498-1.4541c13.74609-1.66797,14.16699-1.48193,19.63574-8.13184,5.47852-6.44336,8.56543-6.58643,14.87695-3.98975,6.30957,2.59521,9.14648,14.84277,8.22168,17.15625-.75684,1.47852-2.79492,1.98584-6.34375,1.11914-3.74316-.65137-12.61621-.65332-26.82129,.00537l-21.20508,.9834Zm-41.70508,48.35547c.3916,8.44141-5.3877,12.83545-13.00977,8.6499-7.62109-4.18555-10.03711-16.24609-5.29688-20.79883,2.73926-3.22217,7.07227-3.2168,12.8125,.43652,2.13477,1.55322,3.62402,2.51465,4.29883,3.72119,.66504,1.00098,.99512,3.66797,1.19531,7.99121Zm83.05762-19.73779c-.02832-.61816,.56152-1.26367,1.7959-1.32129,2.26562-.10498,6.22363,.74316,10.23145,2.62109,7.3877,3.57715,10.10693,8.81543,8.3916,16.32275-1.625,5.02734-2.96094,7.35791-5.80469,8.31689-1.43164,.27148-2.88184,.1333-4.77344-.60596-11.95508-4.18994-18.37402-13.58984-13.48438-19.38721,2.54297-3.00586,3.69141-4.91602,3.64355-5.94629Z"/><path class="cls-7" d="M96.66553,157.14307c8.104-9.71875,14.5918-20.13574,23.61572-27.54004,3.44238-2.92871,13.24463-.80469,18.89893,1.73828,5.26318,2.11133,3.32715,8.00195,.04053,11.96973-9.23291,11.72852-19.99316,20.90625-36.68506,16.17969-2.24463-.52246-4.44922-1.86621-5.87012-2.34766Zm85.5874-93.05078c4.32031-8.25195,8.44287-16.71875,13.45947-26.58691-10.25293-1.32031-18.4375-2.74805-26.65234-3.55762-1.44043-.07031-3.2168,2.52734-4.72803,3.89844-6.67041,5.66211-12.54639,11.98047-19.78418,16.58301-7.47412,5.21094-16.17969,6.02734-24.62695,1.49219-2.41064-1.35352-4.15381-3.70801-7.30859-6.74902,3.77539-1.26172,5.67773-2.20117,7.54053-2.31836,12.5874-.00977,18.38721-9.01562,23.79492-18.45312,1.58008-2.81152,2.4375-7.72266,4.30908-8.04492,4.56934-.60449,11.4126-1.30566,14.38037,1.31348,12.04053,11.31152,27.03271,8.52832,40.99121,10.02832,3.07666,.35449,5.92969,1.1123,8.7915,1.66309,9.82129,1.71289,10.771,3.40918,6.61816,12.49316-3.71045,8.4873-8.82373,16.08105-18.84521,18.48633,10.25439,1.32031,20.10547,2.41504,29.95654,3.50977,4.93018,.44531,6.24365,3.19141,6.03467,7.51465-.58105,16.27246-5.84521,31.28711-13.73779,45.14355-1.12793,2.00977-5.31543,3.25098-7.99121,3.12207-13.38086-.64746-26.51709-2.10645-39.87793-3.16504-11.72461-.77246-23.26172-1.125-34.98633-1.89648-10.07666-.69336-14.03467-4.18652-14.38135-14.10742-.43164-12.40234,.16504-24.75391,.35059-37.125-.00732-4.12695,1.93457-5.89062,6.04248-5.48535,5.94971,.7002,11.66357,2.00781,17.64453,2.08984,10.91992,.32227,21.66504,.0166,33.00586,.15137Zm-32.7124,27.92676c-1.94727,23.22168-1.104,22.85059,17.36621,20.64648-.09375-6.60645-.19629-13.00879-.28027-19.82129l-17.08594-.8252Zm16.73975-21.88867c-15.36963-2.1875-18.60791,.75098-16.3916,14.68262,16.36914,2.85547,18.31152,1.09082,16.3916-14.68262Zm-13.729,62.06348c7.02002-.07324,13.64648-.57812,20.01855-.06445,1.84229,.2959,4.37988,3.30664,4.8877,5.60156,1.89551,7.72656,3.38135,15.43262,4.44336,23.32422,.15674,1.03906-1.41309,3.64648-2.0415,3.82227-6.18555-.09277-12.16504-.17578-18.32129-.88477-.82422-.04004-2.18506-1.75586-2.53613-3.0127-2.24902-8.98047-4.07617-18.14746-6.45068-28.78613Zm57.54248-37.86816c-7.17627-.9668-13.53711-1.68652-20.71338-2.65137l.09131,23.7334c14.44727,4.20508,16.15332,3.0498,19.05566-10.0166,.57031-3.27344,.92578-6.35059,1.56641-11.06543Zm-20.71289,40.06055c1.6665-.33203,2.30371-.71387,3.12695-.67383,24.37158-.47363,19.60693-.08398,23.51318,21.5625,.82031,4.37305-1.33789,6.33301-5.49463,6.95801-.61719-.03027-1.45166,.13477-2.07861,.31152q-13.09912,2.0498-15.37402-10.64648c-.9668-5.61816-2.34473-11.25684-3.69287-17.51172Zm1.09375-65.35645c-.28857,5.96875-.53711,11.11621-.80566,16.6748l21.11475,2.87598c.30811-6.38086,.54688-11.32129,.81543-16.87988l-21.12451-2.6709Zm38.40723,101.93066c-.50879-2.29492-.81055-4.57812-1.53418-6.67773-2.70996-7.9707-5.63623-15.74707-8.14062-23.70898-1.43799-4.40332-.28906-6.82422,4.89697-7.39844,12.46094-1.66699,13.47168-1.20605,17.84473,10.7666,1.44775,4.19629,2.68945,8.38281,4.1377,12.58105,2.00488,5.46191,.41553,8.47852-5.40771,9.43652-2.92285,.68359-5.63818,1.37793-8.56006,2.06152l-3.23682,2.93945Z"/><circle class="cls-1" cx="432.46476" cy="35.7574" r="21.5"/><path class="cls-2" d="M456.43794,38.66659s-15.35954,.7993,52.45648,4.34419,82.96484-29.44546,150.89043-28.95029,199.92559,66.49518,199.92559,66.49518"/><g><path class="cls-7" d="M224.73827,85.55506c5.49473-27.08397,81.16005-61.08094,82.23613-44.74907,1.07608,16.33187-18.1932,35.58581-18.1932,35.58581,0,0,10.99555,14.31592,9.7358,24.13132-1.25975,9.8154-18.76286,20.36377-18.76286,20.36377,0,0,16.40149,34.54752,4.68423,38.21293-11.71726,3.66541-65.19483-46.4608-59.7001-73.54477Z"/><line class="cls-4" x1="254.198" y1="71.89339" x2="275.68842" y2="70.21073"/><line class="cls-4" x1="250.46943" y1="90.27179" x2="274.65155" y2="95.17781"/><line class="cls-4" x1="246.9371" y1="107.68292" x2="262.7783" y2="118.95353"/></g><circle class="cls-9" cx="865.68103" cy="82.63154" r="10.62586"/><g><g><path class="cls-5" d="M582.76904,41.92871c.4043,.00146,1.09863-.10059,2.08203-.30469,.9834-.20459,1.67676-.15039,2.13672,.21436,2.53711,.83887,.68262,1.55957-.93555,1.60645-.80957,.04932-2.71777,.30273-5.72656,.75977-3.00781,.45752-5.32129,.70996-6.88086,.75684-.23242,8.92773-.43555,13.54736-.72754,13.90967-.28906-.00098-.40625,.31055-.41016,.88135,.27441,2.23291-2.60449,.61426-4.15918-.22119-.74902-.41797-1.20898-.62695-1.38281-.6792-.60156-5.19287-.06738-24.70996,.41602-27.87451,.29102-.41455,4.39355-.29736,6.23828,.43555,.9209,.36621,2.01953,.47314,3.23242,.42529,2.48633-.0957,10.62305,1.54004,10.6748,2.31885-.05859,.25928-.9834,.25586-2.83203,.04248-3.69434-.42676-5.08105-.53516-7.39355-.43896-1.15527,.04834-2.13965,.25244-2.9502,.61328-.06348,.77832-.26465,4.93018-.39062,6.59131-.0625,.83008-.01074,1.60938,.04297,2.28418,.28809,.05273,1.79199-.1499,4.39551-.60889s4.16504-.71338,4.57031-.71191Z"/><path class="cls-5" d="M598.61084,31.6499c.64648-1.65869,1.22949-2.53955,2.73145-2.37939,1.50098,.16064,2.99707,1.20361,3.62793,1.88086,.63184,.67676,.79883,1.45605,.84375,3.48047,.04395,2.02539-1.9248,2.79736-4.28711,1.69971-1.21094-.47119-2.0166-.88916-2.41992-1.25391-.68848-.67725-1.14355-1.76855-.49609-3.42773Zm2.07031,10.18115c-.17285-.00098-.28809-.10498-.28711-.3125s.29102-.31055,.81152-.36084c1.09863-.04883,2.77246,.21631,4.1543,.896,1.38281,.6792,1.61426,.67969,1.94727,2.70557,.16699,.98682,.21484,2.49219,.20215,4.5166-.01367,2.0249-.08203,3.47803-.20215,4.30811-.17871,.83008-.30078,1.76416-.42285,2.80176-.24512,2.07617-.47949,2.54248-2.32715,2.32861l-.17285-.00049c-1.15527-.10742-1.90527-.36963-2.30664-.83789-.74609-.88477-1.07324-3.74121-1.09863-8.67285s-.12402-7.37158-.29785-7.37207Z"/><path class="cls-5" d="M632.92822,41.26025c-3.64062-.01172-4.33496,.19336-4.63965,2.52832s-.02344,3.58203,1.3623,3.79395c3.52051,.68652,7.60938,2.82812,8.9834,4.64941,.6875,.88477,1.02734,1.97559,1.01953,3.16992-.01562,2.43945-.83398,3.78662-3.09082,4.24658-2.1416,.61572-7.39941,.49463-10.1084-.60352-3.97656-1.62256-7.98926-6.51465-6.53613-7.80811,.63965-.56885,5.01758,1.41797,5.18457,2.50879,.05371,.5708-.06348,.88184-.46973,1.03662-1.85254,.6167,1.02148,2.75439,1.94531,2.91357,.46289,.05322,1.50293,.1084,3.0625,.06152l3.35254-.09326,.5332-2.02295c1.12695-4.35645-.42676-5.45215-4.11816-6.4502-3.69238-.99805-6.2793-2.82324-7.19336-4.4873s-.89062-5.24609,3.10449-6.32324c2.89453-.76855,5.78125-.50049,8.66211,.8584,1.90137,.88867,3.22461,1.61963,3.97266,2.19336,1.4375,1.09473,1.55176,1.30225,1.53906,3.22314s-.65137,2.38574-2.89746,1.28857c-2.13184-1.04492-2.58691-2.13672-1.48145-3.27539,.87305-.87939,.47168-1.3999-1.26172-1.40527l-.9248-.00293Z"/><path class="cls-5" d="M652.35986,29.74707c.00391-.5708,.06445-.88232,.12305-1.0376,.05859-.15576,.11621-.25977,.29102-.31055,.17285-.05127,.46289-.10254,.9248-.10107,.9248,.00293,3.80566,1.2583,4.2041,2.14209,.28613,.46826,.38867,2.38867,.36523,5.8667-.02246,3.47754,.02344,5.24316,.13965,5.29492,.11426,.05273,.75195-.15332,1.91113-.72021,2.31836-1.13477,3.99609-1.38916,8.32129,.02686,4.32422,1.41553,5.30078,2.30127,5.2666,7.54395l-.02441,3.68555,1.21191,.21191c.86523,.15869,1.21094,.36719,1.66406,1.87402,.22559,.77979,.33789,1.35107,.33496,1.76611-.00586,.83105-.99316,1.65771-2.55371,1.65283s-4.73145-1.05322-5.1875-2.0415c-.28613-.46729-.50488-2.3374-.71484-5.55664-.20898-3.21875-.60059-5.40088-1.28613-6.59668-1.31348-2.34033-1.77344-2.54932-5.13672-.89893l-2.31836,1.13428c-.52148,.25781-1.50977,1.08496-1.68457,1.34424-.1748,.25879-.35742,1.55615-.3623,2.33496-.00293,.36328,.05078,.93457,.10352,1.71338,.16406,1.50586,.24902,6.02295-.05273,8.04639s-1.57422,2.1748-3.24414,1.33887l-1.26758-.62695,.0332-5.03516c.02051-3.1665-.08398-4.77637-.31543-4.77686-.17285-.00049-.81152,.46436-.81543,1.03516-.00195,.25977-.17676,.4668-.46582,.51758-.29004,.05127-.80859-.0542-1.44336-.21191-1.44141-.36816-1.08789-1.50928,1.0625-3.42285l2.03516-1.81006,.0791-11.99121c-.05469-.5708-.10938-.93457-.28223-1.09082-.05664-.15576-.1709-.31201-.28711-.36426-.40332-.05371-.63281-.36572-.62891-.93652Z"/><path class="cls-5" d="M704.53564,47.61719l.15332,11.68018-1.73535,.30615c-2.13965,.35645-4.67871-.2749-5.30859-1.26318-.62891-.98828-.65527-23.20605-.17773-25.54102,.23926-1.19287,.41602-1.81494,.59082-1.97021,.17383-.15527,.40527-.1543,.80957-.04932s.69238,.15771,.86621,.1582c.17285,.00049,.34668,.00146,.46191-.05029,.11621-.05127,.1748-.10303,.1748-.15479,.00098-.20752,.86816-.30908,2.66113-.35498,1.79102-.0459,3.52539-.14453,5.31934-.4502,3.52832-.61133,5.72266-.34473,8.31543,.75342,3.68848,1.41406,4.76953,4.06494,5.02441,9.10059l-2.0918,1.7583c-4.06738,3.4126-9.86328,6.09375-13.09961,6.0835l-1.96387-.00635Zm9.76855-9.26074c.01074-1.71289-.2666-3.271-.77832-4.62207,0-.05176-.05664-.15625-.11328-.26025-.39941-.88379-.74316-1.40381-1.14648-1.56104-.40332-.15674-1.79004-.10986-4.27637,.09033l-.23047-.00098-.00098,.05176-2.42773,.19971c-.3125,3.58154-.56055,6.01953-.62695,7.42139-.06738,1.40088-.07324,2.33545-.01855,2.80322,.05469,.4668,.10938,.83057,.05078,1.03809-.05957,.20752,.05469,.41504,.28516,.62402,.28516,.57178,.34277,.52002,.85938,.93701,.28809,.20898,.45996,.41699,.63184,.625l3.01465-1.3916c2.08594-.97998,3.4209-1.80615,3.94531-2.42725,.52441-.62158,.82031-1.81445,.83203-3.52734Z"/><path class="cls-5" d="M752.07178,41.80078c2.58594,2.34424,3.58887,7.95361,2.40918,11.53174-.70605,1.81494-5.00586,5.59082-5.76074,6.00342-.40625,.20605-1.33105,.20312-2.77344-.00928-1.44336-.21191-2.48242-.31934-3.06055-.37305-5.60156-.53711-9.56738-3.87207-10.23438-7.76807-.84082-3.896-.30469-6.38574,1.27051-8.61279,1.5752-2.22754,4.81934-3.51465,6.43945-3.9248,3.47168-.66309,9.125,.80859,11.70996,3.15283Zm-13.47266,10.13086c-.00586,.83057,.28027,1.24658,1.02051,2.91016s.85449,1.97559,3.80176,1.88135c1.44531-.04736,2.48633-.25146,3.06641-.50928,2.5498-1.1333,3.22461-7.15332,1.9209-10.94678-1.30371-3.79395-1.69434-5.87207-6.04102-4.06885-2.14355,.87598-3.43164,3.4668-3.74902,7.77441l-.01953,2.95898Z"/><path class="cls-5" d="M767.33154,32.19531c.64648-1.65918,1.22949-2.54004,2.73145-2.37988,1.50098,.16064,2.99707,1.20361,3.62793,1.88086,.63184,.67676,.79883,1.45605,.84375,3.48047,.04395,2.02539-1.9248,2.79736-4.28711,1.69971-1.21094-.47119-2.0166-.88916-2.41992-1.25391-.68848-.67725-1.14355-1.76855-.49609-3.42725Zm2.07031,10.18066c-.17285-.00049-.28809-.10498-.28711-.3125s.29102-.31055,.81152-.36084c1.09863-.04883,2.77246,.21631,4.1543,.896,1.38281,.6792,1.61426,.67969,1.94727,2.70557,.16699,.98682,.21484,2.49219,.20215,4.5166-.01367,2.0249-.08203,3.47803-.20215,4.30811-.17871,.83008-.30078,1.76416-.42285,2.80176-.24512,2.07617-.47949,2.54248-2.32715,2.32861l-.17285-.00049c-1.15527-.10742-1.90527-.36963-2.30664-.83789-.74609-.88477-1.07324-3.74121-1.09863-8.67285s-.12402-7.37158-.29785-7.37207Z"/><path class="cls-5" d="M813.44873,48.64355c-1.38672-.00439-7.03906-1.58008-9.05469-2.67676-3.74219-2.03662-5.26758-7.28467-2.87988-10.18359,1.39844-1.7085,2.38574-2.48438,5.33691-3.04541,5.03418-.97021,8.61621-.85449,10.86133,.34668,1.3252,.5752,2.24707,1.04541,2.76465,1.4624,1.0918,.88574,.96875,1.87207-1.16016,.56738-1.78418-1.0957-3.91992-1.41406-6.40723-1.05908-.52051,.05029-.92578,.10059-1.09961,.25586-.1748,.15527-.2334,.31055-.17676,.51855,.1709,.41602-.12109,.88232-.87598,1.45068-1.56738,1.08545-3.14258,3.31152-2.70215,6.63525s-.30957,3.16553,4.07812,3.75146c4.3877,.58496,9.91992,2.88672,11.12109,4.81104,1.20117,1.9248,1.30176,4.05371,.19629,5.24414s-4.64453,3.25537-6.95898,3.71533c-2.31543,.61475-8.03906,.95947-9.71191,.53906-1.67285-.41992-7.37207-3.65723-8.80566-5.32324-.74512-.88477-.79688-1.76709-.27148-2.64844,.29199-.46631,.35059-.56934,.8125-.51611s1.84473,.57666,2.07422,.94092c.05664,.15625,.1123,.46777,.10938,.93457-.00586,.88281,.1582,2.23291,2.28809,3.5376,2.12891,1.30469,2.1875,1.20117,6.34863,1.11084,2.08105-.04541,3.64258-.24756,4.62695-.50439,.98438-.35986,1.56543-.87744,1.68555-1.55176,.48145-2.854,.55273-4.98145-.07324-6.48926-.28418-.7793-.51074-1.29932-.74121-1.50781-.22949-.2085-.69141-.31348-1.38477-.31592Z"/><path class="cls-5" d="M836.104,30.34033c.00391-.5708,.06445-.88184,.12305-1.0376,.05859-.15527,.11621-.25928,.29102-.31055,.17285-.05127,.46289-.10254,.9248-.10107,.9248,.00293,3.80566,1.2583,4.2041,2.14209,.28613,.46826,.38867,2.38916,.36523,5.86719-.02246,3.47754,.02344,5.24268,.13965,5.29492,.11426,.05273,.75195-.15332,1.91113-.7207,2.31836-1.13428,3.99609-1.38867,8.32129,.02734,4.32422,1.41504,5.30078,2.30127,5.2666,7.54395l-.02441,3.68555,1.21191,.21191c.86523,.1582,1.21094,.36719,1.66406,1.87402,.22559,.7793,.33789,1.35059,.33496,1.76562-.00586,.83105-.99316,1.6582-2.55371,1.65283-1.56055-.00488-4.73145-1.05322-5.1875-2.04102-.28613-.46777-.50488-2.33789-.71484-5.55664-.20898-3.21924-.60059-5.40088-1.28613-6.59717-1.31348-2.34033-1.77344-2.54932-5.13672-.89893l-2.31836,1.13477c-.52148,.25732-1.50977,1.08496-1.68457,1.34424-.1748,.25879-.35742,1.55566-.3623,2.33447-.00293,.36328,.05078,.93506,.10352,1.71338,.16406,1.50586,.24902,6.02295-.05273,8.04639s-1.57422,2.17529-3.24414,1.33936l-1.26758-.62744,.0332-5.03516c.02051-3.1665-.08398-4.77588-.31543-4.77686-.17285-.00049-.81152,.46484-.81543,1.03564-.00195,.25977-.17676,.4668-.46582,.51758-.29004,.05127-.80859-.05469-1.44336-.2124-1.44141-.36768-1.08789-1.50879,1.0625-3.42285l2.03516-1.81006,.0791-11.99121c-.05469-.5708-.10938-.93408-.28223-1.09082-.05664-.15576-.1709-.31201-.28711-.36377-.40332-.05371-.63281-.36621-.62891-.93701Z"/><path class="cls-5" d="M891.90088,42.25244c2.58594,2.34424,3.58887,7.95361,2.40918,11.53174-.70605,1.81494-5.00586,5.59082-5.76074,6.00342-.40625,.20605-1.33105,.20312-2.77344-.00928-1.44336-.21191-2.48242-.31934-3.06055-.37305-5.60156-.53711-9.56738-3.87256-10.23438-7.76807-.84082-3.896-.30469-6.38574,1.27051-8.61279,1.5752-2.22754,4.81934-3.51465,6.43945-3.9248,3.47168-.66309,9.125,.80859,11.70996,3.15283Zm-13.47266,10.13086c-.00586,.83057,.28027,1.24658,1.02051,2.91016s.85449,1.97559,3.80176,1.88135c1.44531-.04736,2.48633-.25146,3.06641-.50928,2.5498-1.13379,3.22461-7.15332,1.9209-10.94678-1.30371-3.79395-1.69434-5.87207-6.04102-4.06885-2.14355,.87598-3.43164,3.4668-3.74902,7.77441l-.01953,2.95898Z"/><path class="cls-5" d="M917.23193,56.50586l-3.92969,.14307-.04785,7.16309c-.03125,4.72363-.16406,7.21484-.39551,7.37012-.63672,.25781-3.86523-1.05078-4.6123-1.52051-.3457-.26025-.57422-.62451-.74316-1.19629-.33984-1.09082-.2998-24.76221,.11426-26.26611,.41504-1.50391,.07129-1.97266,2.15137-1.86182,1.03906,.05518,1.9043,.36963,2.53613,.83887,.63281,.46924,1.15137,.73047,1.55566,.73145,.4043,.00146,1.15625-.1001,2.31348-.25195,2.31348-.30371,3.00684-.25,4.56348,.27441,4.55469,1.52002,6.27539,3.49805,6.25195,6.97607-.03418,5.19092-2.64941,7.36279-9.75781,7.59961Zm-3.91797-1.72559l2.42676,.00781c1.90723,.00635,2.54297-.14746,3.18262-.76855,2.21094-2.17285,2.75684-6.1167,1.3877-8.76855-.68457-1.30029-1.08496-1.97607-1.2002-1.97656-1.73535,.25439-3.24023,.61279-4.57227,1.07568l-1.1582,.41113-.06641,10.01904Z"/></g><g><path class="cls-3" d="M582.76904,41.92871c.4043,.00146,1.09863-.10059,2.08203-.30469,.9834-.20459,1.67676-.15039,2.13672,.21436,2.53711,.83887,.68262,1.55957-.93555,1.60645-.80957,.04932-2.71777,.30273-5.72656,.75977-3.00781,.45752-5.32129,.70996-6.88086,.75684-.23242,8.92773-.43555,13.54736-.72754,13.90967-.28906-.00098-.40625,.31055-.41016,.88135,.27441,2.23291-2.60449,.61426-4.15918-.22119-.74902-.41797-1.20898-.62695-1.38281-.6792-.60156-5.19287-.06738-24.70996,.41602-27.87451,.29102-.41455,4.39355-.29736,6.23828,.43555,.9209,.36621,2.01953,.47314,3.23242,.42529,2.48633-.0957,10.62305,1.54004,10.6748,2.31885-.05859,.25928-.9834,.25586-2.83203,.04248-3.69434-.42676-5.08105-.53516-7.39355-.43896-1.15527,.04834-2.13965,.25244-2.9502,.61328-.06348,.77832-.26465,4.93018-.39062,6.59131-.0625,.83008-.01074,1.60938,.04297,2.28418,.28809,.05273,1.79199-.1499,4.39551-.60889s4.16504-.71338,4.57031-.71191Z"/><path class="cls-3" d="M598.61084,31.6499c.64648-1.65869,1.22949-2.53955,2.73145-2.37939,1.50098,.16064,2.99707,1.20361,3.62793,1.88086,.63184,.67676,.79883,1.45605,.84375,3.48047,.04395,2.02539-1.9248,2.79736-4.28711,1.69971-1.21094-.47119-2.0166-.88916-2.41992-1.25391-.68848-.67725-1.14355-1.76855-.49609-3.42773Zm2.07031,10.18115c-.17285-.00098-.28809-.10498-.28711-.3125s.29102-.31055,.81152-.36084c1.09863-.04883,2.77246,.21631,4.1543,.896,1.38281,.6792,1.61426,.67969,1.94727,2.70557,.16699,.98682,.21484,2.49219,.20215,4.5166-.01367,2.0249-.08203,3.47803-.20215,4.30811-.17871,.83008-.30078,1.76416-.42285,2.80176-.24512,2.07617-.47949,2.54248-2.32715,2.32861l-.17285-.00049c-1.15527-.10742-1.90527-.36963-2.30664-.83789-.74609-.88477-1.07324-3.74121-1.09863-8.67285s-.12402-7.37158-.29785-7.37207Z"/><path class="cls-3" d="M632.92822,41.26025c-3.64062-.01172-4.33496,.19336-4.63965,2.52832s-.02344,3.58203,1.3623,3.79395c3.52051,.68652,7.60938,2.82812,8.9834,4.64941,.6875,.88477,1.02734,1.97559,1.01953,3.16992-.01562,2.43945-.83398,3.78662-3.09082,4.24658-2.1416,.61572-7.39941,.49463-10.1084-.60352-3.97656-1.62256-7.98926-6.51465-6.53613-7.80811,.63965-.56885,5.01758,1.41797,5.18457,2.50879,.05371,.5708-.06348,.88184-.46973,1.03662-1.85254,.6167,1.02148,2.75439,1.94531,2.91357,.46289,.05322,1.50293,.1084,3.0625,.06152l3.35254-.09326,.5332-2.02295c1.12695-4.35645-.42676-5.45215-4.11816-6.4502-3.69238-.99805-6.2793-2.82324-7.19336-4.4873s-.89062-5.24609,3.10449-6.32324c2.89453-.76855,5.78125-.50049,8.66211,.8584,1.90137,.88867,3.22461,1.61963,3.97266,2.19336,1.4375,1.09473,1.55176,1.30225,1.53906,3.22314s-.65137,2.38574-2.89746,1.28857c-2.13184-1.04492-2.58691-2.13672-1.48145-3.27539,.87305-.87939,.47168-1.3999-1.26172-1.40527l-.9248-.00293Z"/><path class="cls-3" d="M652.35986,29.74707c.00391-.5708,.06445-.88232,.12305-1.0376,.05859-.15576,.11621-.25977,.29102-.31055,.17285-.05127,.46289-.10254,.9248-.10107,.9248,.00293,3.80566,1.2583,4.2041,2.14209,.28613,.46826,.38867,2.38867,.36523,5.8667-.02246,3.47754,.02344,5.24316,.13965,5.29492,.11426,.05273,.75195-.15332,1.91113-.72021,2.31836-1.13477,3.99609-1.38916,8.32129,.02686,4.32422,1.41553,5.30078,2.30127,5.2666,7.54395l-.02441,3.68555,1.21191,.21191c.86523,.15869,1.21094,.36719,1.66406,1.87402,.22559,.77979,.33789,1.35107,.33496,1.76611-.00586,.83105-.99316,1.65771-2.55371,1.65283s-4.73145-1.05322-5.1875-2.0415c-.28613-.46729-.50488-2.3374-.71484-5.55664-.20898-3.21875-.60059-5.40088-1.28613-6.59668-1.31348-2.34033-1.77344-2.54932-5.13672-.89893l-2.31836,1.13428c-.52148,.25781-1.50977,1.08496-1.68457,1.34424-.1748,.25879-.35742,1.55615-.3623,2.33496-.00293,.36328,.05078,.93457,.10352,1.71338,.16406,1.50586,.24902,6.02295-.05273,8.04639s-1.57422,2.1748-3.24414,1.33887l-1.26758-.62695,.0332-5.03516c.02051-3.1665-.08398-4.77637-.31543-4.77686-.17285-.00049-.81152,.46436-.81543,1.03516-.00195,.25977-.17676,.4668-.46582,.51758-.29004,.05127-.80859-.0542-1.44336-.21191-1.44141-.36816-1.08789-1.50928,1.0625-3.42285l2.03516-1.81006,.0791-11.99121c-.05469-.5708-.10938-.93457-.28223-1.09082-.05664-.15576-.1709-.31201-.28711-.36426-.40332-.05371-.63281-.36572-.62891-.93652Z"/><path class="cls-3" d="M704.53564,47.61719l.15332,11.68018-1.73535,.30615c-2.13965,.35645-4.67871-.2749-5.30859-1.26318-.62891-.98828-.65527-23.20605-.17773-25.54102,.23926-1.19287,.41602-1.81494,.59082-1.97021,.17383-.15527,.40527-.1543,.80957-.04932s.69238,.15771,.86621,.1582c.17285,.00049,.34668,.00146,.46191-.05029,.11621-.05127,.1748-.10303,.1748-.15479,.00098-.20752,.86816-.30908,2.66113-.35498,1.79102-.0459,3.52539-.14453,5.31934-.4502,3.52832-.61133,5.72266-.34473,8.31543,.75342,3.68848,1.41406,4.76953,4.06494,5.02441,9.10059l-2.0918,1.7583c-4.06738,3.4126-9.86328,6.09375-13.09961,6.0835l-1.96387-.00635Zm9.76855-9.26074c.01074-1.71289-.2666-3.271-.77832-4.62207,0-.05176-.05664-.15625-.11328-.26025-.39941-.88379-.74316-1.40381-1.14648-1.56104-.40332-.15674-1.79004-.10986-4.27637,.09033l-.23047-.00098-.00098,.05176-2.42773,.19971c-.3125,3.58154-.56055,6.01953-.62695,7.42139-.06738,1.40088-.07324,2.33545-.01855,2.80322,.05469,.4668,.10938,.83057,.05078,1.03809-.05957,.20752,.05469,.41504,.28516,.62402,.28516,.57178,.34277,.52002,.85938,.93701,.28809,.20898,.45996,.41699,.63184,.625l3.01465-1.3916c2.08594-.97998,3.4209-1.80615,3.94531-2.42725,.52441-.62158,.82031-1.81445,.83203-3.52734Z"/><path class="cls-3" d="M752.07178,41.80078c2.58594,2.34424,3.58887,7.95361,2.40918,11.53174-.70605,1.81494-5.00586,5.59082-5.76074,6.00342-.40625,.20605-1.33105,.20312-2.77344-.00928-1.44336-.21191-2.48242-.31934-3.06055-.37305-5.60156-.53711-9.56738-3.87207-10.23438-7.76807-.84082-3.896-.30469-6.38574,1.27051-8.61279,1.5752-2.22754,4.81934-3.51465,6.43945-3.9248,3.47168-.66309,9.125,.80859,11.70996,3.15283Zm-13.47266,10.13086c-.00586,.83057,.28027,1.24658,1.02051,2.91016s.85449,1.97559,3.80176,1.88135c1.44531-.04736,2.48633-.25146,3.06641-.50928,2.5498-1.1333,3.22461-7.15332,1.9209-10.94678-1.30371-3.79395-1.69434-5.87207-6.04102-4.06885-2.14355,.87598-3.43164,3.4668-3.74902,7.77441l-.01953,2.95898Z"/><path class="cls-3" d="M767.33154,32.19531c.64648-1.65918,1.22949-2.54004,2.73145-2.37988,1.50098,.16064,2.99707,1.20361,3.62793,1.88086,.63184,.67676,.79883,1.45605,.84375,3.48047,.04395,2.02539-1.9248,2.79736-4.28711,1.69971-1.21094-.47119-2.0166-.88916-2.41992-1.25391-.68848-.67725-1.14355-1.76855-.49609-3.42725Zm2.07031,10.18066c-.17285-.00049-.28809-.10498-.28711-.3125s.29102-.31055,.81152-.36084c1.09863-.04883,2.77246,.21631,4.1543,.896,1.38281,.6792,1.61426,.67969,1.94727,2.70557,.16699,.98682,.21484,2.49219,.20215,4.5166-.01367,2.0249-.08203,3.47803-.20215,4.30811-.17871,.83008-.30078,1.76416-.42285,2.80176-.24512,2.07617-.47949,2.54248-2.32715,2.32861l-.17285-.00049c-1.15527-.10742-1.90527-.36963-2.30664-.83789-.74609-.88477-1.07324-3.74121-1.09863-8.67285s-.12402-7.37158-.29785-7.37207Z"/><path class="cls-3" d="M813.44873,48.64355c-1.38672-.00439-7.03906-1.58008-9.05469-2.67676-3.74219-2.03662-5.26758-7.28467-2.87988-10.18359,1.39844-1.7085,2.38574-2.48438,5.33691-3.04541,5.03418-.97021,8.61621-.85449,10.86133,.34668,1.3252,.5752,2.24707,1.04541,2.76465,1.4624,1.0918,.88574,.96875,1.87207-1.16016,.56738-1.78418-1.0957-3.91992-1.41406-6.40723-1.05908-.52051,.05029-.92578,.10059-1.09961,.25586-.1748,.15527-.2334,.31055-.17676,.51855,.1709,.41602-.12109,.88232-.87598,1.45068-1.56738,1.08545-3.14258,3.31152-2.70215,6.63525s-.30957,3.16553,4.07812,3.75146c4.3877,.58496,9.91992,2.88672,11.12109,4.81104,1.20117,1.9248,1.30176,4.05371,.19629,5.24414s-4.64453,3.25537-6.95898,3.71533c-2.31543,.61475-8.03906,.95947-9.71191,.53906-1.67285-.41992-7.37207-3.65723-8.80566-5.32324-.74512-.88477-.79688-1.76709-.27148-2.64844,.29199-.46631,.35059-.56934,.8125-.51611s1.84473,.57666,2.07422,.94092c.05664,.15625,.1123,.46777,.10938,.93457-.00586,.88281,.1582,2.23291,2.28809,3.5376,2.12891,1.30469,2.1875,1.20117,6.34863,1.11084,2.08105-.04541,3.64258-.24756,4.62695-.50439,.98438-.35986,1.56543-.87744,1.68555-1.55176,.48145-2.854,.55273-4.98145-.07324-6.48926-.28418-.7793-.51074-1.29932-.74121-1.50781-.22949-.2085-.69141-.31348-1.38477-.31592Z"/><path class="cls-3" d="M836.104,30.34033c.00391-.5708,.06445-.88184,.12305-1.0376,.05859-.15527,.11621-.25928,.29102-.31055,.17285-.05127,.46289-.10254,.9248-.10107,.9248,.00293,3.80566,1.2583,4.2041,2.14209,.28613,.46826,.38867,2.38916,.36523,5.86719-.02246,3.47754,.02344,5.24268,.13965,5.29492,.11426,.05273,.75195-.15332,1.91113-.7207,2.31836-1.13428,3.99609-1.38867,8.32129,.02734,4.32422,1.41504,5.30078,2.30127,5.2666,7.54395l-.02441,3.68555,1.21191,.21191c.86523,.1582,1.21094,.36719,1.66406,1.87402,.22559,.7793,.33789,1.35059,.33496,1.76562-.00586,.83105-.99316,1.6582-2.55371,1.65283-1.56055-.00488-4.73145-1.05322-5.1875-2.04102-.28613-.46777-.50488-2.33789-.71484-5.55664-.20898-3.21924-.60059-5.40088-1.28613-6.59717-1.31348-2.34033-1.77344-2.54932-5.13672-.89893l-2.31836,1.13477c-.52148,.25732-1.50977,1.08496-1.68457,1.34424-.1748,.25879-.35742,1.55566-.3623,2.33447-.00293,.36328,.05078,.93506,.10352,1.71338,.16406,1.50586,.24902,6.02295-.05273,8.04639s-1.57422,2.17529-3.24414,1.33936l-1.26758-.62744,.0332-5.03516c.02051-3.1665-.08398-4.77588-.31543-4.77686-.17285-.00049-.81152,.46484-.81543,1.03564-.00195,.25977-.17676,.4668-.46582,.51758-.29004,.05127-.80859-.05469-1.44336-.2124-1.44141-.36768-1.08789-1.50879,1.0625-3.42285l2.03516-1.81006,.0791-11.99121c-.05469-.5708-.10938-.93408-.28223-1.09082-.05664-.15576-.1709-.31201-.28711-.36377-.40332-.05371-.63281-.36621-.62891-.93701Z"/><path class="cls-3" d="M891.90088,42.25244c2.58594,2.34424,3.58887,7.95361,2.40918,11.53174-.70605,1.81494-5.00586,5.59082-5.76074,6.00342-.40625,.20605-1.33105,.20312-2.77344-.00928-1.44336-.21191-2.48242-.31934-3.06055-.37305-5.60156-.53711-9.56738-3.87256-10.23438-7.76807-.84082-3.896-.30469-6.38574,1.27051-8.61279,1.5752-2.22754,4.81934-3.51465,6.43945-3.9248,3.47168-.66309,9.125,.80859,11.70996,3.15283Zm-13.47266,10.13086c-.00586,.83057,.28027,1.24658,1.02051,2.91016s.85449,1.97559,3.80176,1.88135c1.44531-.04736,2.48633-.25146,3.06641-.50928,2.5498-1.13379,3.22461-7.15332,1.9209-10.94678-1.30371-3.79395-1.69434-5.87207-6.04102-4.06885-2.14355,.87598-3.43164,3.4668-3.74902,7.77441l-.01953,2.95898Z"/><path class="cls-3" d="M917.23193,56.50586l-3.92969,.14307-.04785,7.16309c-.03125,4.72363-.16406,7.21484-.39551,7.37012-.63672,.25781-3.86523-1.05078-4.6123-1.52051-.3457-.26025-.57422-.62451-.74316-1.19629-.33984-1.09082-.2998-24.76221,.11426-26.26611,.41504-1.50391,.07129-1.97266,2.15137-1.86182,1.03906,.05518,1.9043,.36963,2.53613,.83887,.63281,.46924,1.15137,.73047,1.55566,.73145,.4043,.00146,1.15625-.1001,2.31348-.25195,2.31348-.30371,3.00684-.25,4.56348,.27441,4.55469,1.52002,6.27539,3.49805,6.25195,6.97607-.03418,5.19092-2.64941,7.36279-9.75781,7.59961Zm-3.91797-1.72559l2.42676,.00781c1.90723,.00635,2.54297-.14746,3.18262-.76855,2.21094-2.17285,2.75684-6.1167,1.3877-8.76855-.68457-1.30029-1.08496-1.97607-1.2002-1.97656-1.73535,.25439-3.24023,.61279-4.57227,1.07568l-1.1582,.41113-.06641,10.01904Z"/></g><g><path class="cls-9" d="M582.76904,41.92871c.4043,.00146,1.09863-.10059,2.08203-.30469,.9834-.20459,1.67676-.15039,2.13672,.21436,2.53711,.83887,.68262,1.55957-.93555,1.60645-.80957,.04932-2.71777,.30273-5.72656,.75977-3.00781,.45752-5.32129,.70996-6.88086,.75684-.23242,8.92773-.43555,13.54736-.72754,13.90967-.28906-.00098-.40625,.31055-.41016,.88135,.27441,2.23291-2.60449,.61426-4.15918-.22119-.74902-.41797-1.20898-.62695-1.38281-.6792-.60156-5.19287-.06738-24.70996,.41602-27.87451,.29102-.41455,4.39355-.29736,6.23828,.43555,.9209,.36621,2.01953,.47314,3.23242,.42529,2.48633-.0957,10.62305,1.54004,10.6748,2.31885-.05859,.25928-.9834,.25586-2.83203,.04248-3.69434-.42676-5.08105-.53516-7.39355-.43896-1.15527,.04834-2.13965,.25244-2.9502,.61328-.06348,.77832-.26465,4.93018-.39062,6.59131-.0625,.83008-.01074,1.60938,.04297,2.28418,.28809,.05273,1.79199-.1499,4.39551-.60889s4.16504-.71338,4.57031-.71191Z"/><path class="cls-9" d="M598.61084,31.6499c.64648-1.65869,1.22949-2.53955,2.73145-2.37939,1.50098,.16064,2.99707,1.20361,3.62793,1.88086,.63184,.67676,.79883,1.45605,.84375,3.48047,.04395,2.02539-1.9248,2.79736-4.28711,1.69971-1.21094-.47119-2.0166-.88916-2.41992-1.25391-.68848-.67725-1.14355-1.76855-.49609-3.42773Zm2.07031,10.18115c-.17285-.00098-.28809-.10498-.28711-.3125s.29102-.31055,.81152-.36084c1.09863-.04883,2.77246,.21631,4.1543,.896,1.38281,.6792,1.61426,.67969,1.94727,2.70557,.16699,.98682,.21484,2.49219,.20215,4.5166-.01367,2.0249-.08203,3.47803-.20215,4.30811-.17871,.83008-.30078,1.76416-.42285,2.80176-.24512,2.07617-.47949,2.54248-2.32715,2.32861l-.17285-.00049c-1.15527-.10742-1.90527-.36963-2.30664-.83789-.74609-.88477-1.07324-3.74121-1.09863-8.67285s-.12402-7.37158-.29785-7.37207Z"/><path class="cls-9" d="M632.92822,41.26025c-3.64062-.01172-4.33496,.19336-4.63965,2.52832s-.02344,3.58203,1.3623,3.79395c3.52051,.68652,7.60938,2.82812,8.9834,4.64941,.6875,.88477,1.02734,1.97559,1.01953,3.16992-.01562,2.43945-.83398,3.78662-3.09082,4.24658-2.1416,.61572-7.39941,.49463-10.1084-.60352-3.97656-1.62256-7.98926-6.51465-6.53613-7.80811,.63965-.56885,5.01758,1.41797,5.18457,2.50879,.05371,.5708-.06348,.88184-.46973,1.03662-1.85254,.6167,1.02148,2.75439,1.94531,2.91357,.46289,.05322,1.50293,.1084,3.0625,.06152l3.35254-.09326,.5332-2.02295c1.12695-4.35645-.42676-5.45215-4.11816-6.4502-3.69238-.99805-6.2793-2.82324-7.19336-4.4873s-.89062-5.24609,3.10449-6.32324c2.89453-.76855,5.78125-.50049,8.66211,.8584,1.90137,.88867,3.22461,1.61963,3.97266,2.19336,1.4375,1.09473,1.55176,1.30225,1.53906,3.22314s-.65137,2.38574-2.89746,1.28857c-2.13184-1.04492-2.58691-2.13672-1.48145-3.27539,.87305-.87939,.47168-1.3999-1.26172-1.40527l-.9248-.00293Z"/><path class="cls-9" d="M652.35986,29.74707c.00391-.5708,.06445-.88232,.12305-1.0376,.05859-.15576,.11621-.25977,.29102-.31055,.17285-.05127,.46289-.10254,.9248-.10107,.9248,.00293,3.80566,1.2583,4.2041,2.14209,.28613,.46826,.38867,2.38867,.36523,5.8667-.02246,3.47754,.02344,5.24316,.13965,5.29492,.11426,.05273,.75195-.15332,1.91113-.72021,2.31836-1.13477,3.99609-1.38916,8.32129,.02686,4.32422,1.41553,5.30078,2.30127,5.2666,7.54395l-.02441,3.68555,1.21191,.21191c.86523,.15869,1.21094,.36719,1.66406,1.87402,.22559,.77979,.33789,1.35107,.33496,1.76611-.00586,.83105-.99316,1.65771-2.55371,1.65283s-4.73145-1.05322-5.1875-2.0415c-.28613-.46729-.50488-2.3374-.71484-5.55664-.20898-3.21875-.60059-5.40088-1.28613-6.59668-1.31348-2.34033-1.77344-2.54932-5.13672-.89893l-2.31836,1.13428c-.52148,.25781-1.50977,1.08496-1.68457,1.34424-.1748,.25879-.35742,1.55615-.3623,2.33496-.00293,.36328,.05078,.93457,.10352,1.71338,.16406,1.50586,.24902,6.02295-.05273,8.04639s-1.57422,2.1748-3.24414,1.33887l-1.26758-.62695,.0332-5.03516c.02051-3.1665-.08398-4.77637-.31543-4.77686-.17285-.00049-.81152,.46436-.81543,1.03516-.00195,.25977-.17676,.4668-.46582,.51758-.29004,.05127-.80859-.0542-1.44336-.21191-1.44141-.36816-1.08789-1.50928,1.0625-3.42285l2.03516-1.81006,.0791-11.99121c-.05469-.5708-.10938-.93457-.28223-1.09082-.05664-.15576-.1709-.31201-.28711-.36426-.40332-.05371-.63281-.36572-.62891-.93652Z"/><path class="cls-9" d="M704.53564,47.61719l.15332,11.68018-1.73535,.30615c-2.13965,.35645-4.67871-.2749-5.30859-1.26318-.62891-.98828-.65527-23.20605-.17773-25.54102,.23926-1.19287,.41602-1.81494,.59082-1.97021,.17383-.15527,.40527-.1543,.80957-.04932s.69238,.15771,.86621,.1582c.17285,.00049,.34668,.00146,.46191-.05029,.11621-.05127,.1748-.10303,.1748-.15479,.00098-.20752,.86816-.30908,2.66113-.35498,1.79102-.0459,3.52539-.14453,5.31934-.4502,3.52832-.61133,5.72266-.34473,8.31543,.75342,3.68848,1.41406,4.76953,4.06494,5.02441,9.10059l-2.0918,1.7583c-4.06738,3.4126-9.86328,6.09375-13.09961,6.0835l-1.96387-.00635Zm9.76855-9.26074c.01074-1.71289-.2666-3.271-.77832-4.62207,0-.05176-.05664-.15625-.11328-.26025-.39941-.88379-.74316-1.40381-1.14648-1.56104-.40332-.15674-1.79004-.10986-4.27637,.09033l-.23047-.00098-.00098,.05176-2.42773,.19971c-.3125,3.58154-.56055,6.01953-.62695,7.42139-.06738,1.40088-.07324,2.33545-.01855,2.80322,.05469,.4668,.10938,.83057,.05078,1.03809-.05957,.20752,.05469,.41504,.28516,.62402,.28516,.57178,.34277,.52002,.85938,.93701,.28809,.20898,.45996,.41699,.63184,.625l3.01465-1.3916c2.08594-.97998,3.4209-1.80615,3.94531-2.42725,.52441-.62158,.82031-1.81445,.83203-3.52734Z"/><path class="cls-9" d="M752.07178,41.80078c2.58594,2.34424,3.58887,7.95361,2.40918,11.53174-.70605,1.81494-5.00586,5.59082-5.76074,6.00342-.40625,.20605-1.33105,.20312-2.77344-.00928-1.44336-.21191-2.48242-.31934-3.06055-.37305-5.60156-.53711-9.56738-3.87207-10.23438-7.76807-.84082-3.896-.30469-6.38574,1.27051-8.61279,1.5752-2.22754,4.81934-3.51465,6.43945-3.9248,3.47168-.66309,9.125,.80859,11.70996,3.15283Zm-13.47266,10.13086c-.00586,.83057,.28027,1.24658,1.02051,2.91016s.85449,1.97559,3.80176,1.88135c1.44531-.04736,2.48633-.25146,3.06641-.50928,2.5498-1.1333,3.22461-7.15332,1.9209-10.94678-1.30371-3.79395-1.69434-5.87207-6.04102-4.06885-2.14355,.87598-3.43164,3.4668-3.74902,7.77441l-.01953,2.95898Z"/><path class="cls-9" d="M767.33154,32.19531c.64648-1.65918,1.22949-2.54004,2.73145-2.37988,1.50098,.16064,2.99707,1.20361,3.62793,1.88086,.63184,.67676,.79883,1.45605,.84375,3.48047,.04395,2.02539-1.9248,2.79736-4.28711,1.69971-1.21094-.47119-2.0166-.88916-2.41992-1.25391-.68848-.67725-1.14355-1.76855-.49609-3.42725Zm2.07031,10.18066c-.17285-.00049-.28809-.10498-.28711-.3125s.29102-.31055,.81152-.36084c1.09863-.04883,2.77246,.21631,4.1543,.896,1.38281,.6792,1.61426,.67969,1.94727,2.70557,.16699,.98682,.21484,2.49219,.20215,4.5166-.01367,2.0249-.08203,3.47803-.20215,4.30811-.17871,.83008-.30078,1.76416-.42285,2.80176-.24512,2.07617-.47949,2.54248-2.32715,2.32861l-.17285-.00049c-1.15527-.10742-1.90527-.36963-2.30664-.83789-.74609-.88477-1.07324-3.74121-1.09863-8.67285s-.12402-7.37158-.29785-7.37207Z"/><path class="cls-9" d="M813.44873,48.64355c-1.38672-.00439-7.03906-1.58008-9.05469-2.67676-3.74219-2.03662-5.26758-7.28467-2.87988-10.18359,1.39844-1.7085,2.38574-2.48438,5.33691-3.04541,5.03418-.97021,8.61621-.85449,10.86133,.34668,1.3252,.5752,2.24707,1.04541,2.76465,1.4624,1.0918,.88574,.96875,1.87207-1.16016,.56738-1.78418-1.0957-3.91992-1.41406-6.40723-1.05908-.52051,.05029-.92578,.10059-1.09961,.25586-.1748,.15527-.2334,.31055-.17676,.51855,.1709,.41602-.12109,.88232-.87598,1.45068-1.56738,1.08545-3.14258,3.31152-2.70215,6.63525s-.30957,3.16553,4.07812,3.75146c4.3877,.58496,9.91992,2.88672,11.12109,4.81104,1.20117,1.9248,1.30176,4.05371,.19629,5.24414s-4.64453,3.25537-6.95898,3.71533c-2.31543,.61475-8.03906,.95947-9.71191,.53906-1.67285-.41992-7.37207-3.65723-8.80566-5.32324-.74512-.88477-.79688-1.76709-.27148-2.64844,.29199-.46631,.35059-.56934,.8125-.51611s1.84473,.57666,2.07422,.94092c.05664,.15625,.1123,.46777,.10938,.93457-.00586,.88281,.1582,2.23291,2.28809,3.5376,2.12891,1.30469,2.1875,1.20117,6.34863,1.11084,2.08105-.04541,3.64258-.24756,4.62695-.50439,.98438-.35986,1.56543-.87744,1.68555-1.55176,.48145-2.854,.55273-4.98145-.07324-6.48926-.28418-.7793-.51074-1.29932-.74121-1.50781-.22949-.2085-.69141-.31348-1.38477-.31592Z"/><path class="cls-9" d="M836.104,30.34033c.00391-.5708,.06445-.88184,.12305-1.0376,.05859-.15527,.11621-.25928,.29102-.31055,.17285-.05127,.46289-.10254,.9248-.10107,.9248,.00293,3.80566,1.2583,4.2041,2.14209,.28613,.46826,.38867,2.38916,.36523,5.86719-.02246,3.47754,.02344,5.24268,.13965,5.29492,.11426,.05273,.75195-.15332,1.91113-.7207,2.31836-1.13428,3.99609-1.38867,8.32129,.02734,4.32422,1.41504,5.30078,2.30127,5.2666,7.54395l-.02441,3.68555,1.21191,.21191c.86523,.1582,1.21094,.36719,1.66406,1.87402,.22559,.7793,.33789,1.35059,.33496,1.76562-.00586,.83105-.99316,1.6582-2.55371,1.65283-1.56055-.00488-4.73145-1.05322-5.1875-2.04102-.28613-.46777-.50488-2.33789-.71484-5.55664-.20898-3.21924-.60059-5.40088-1.28613-6.59717-1.31348-2.34033-1.77344-2.54932-5.13672-.89893l-2.31836,1.13477c-.52148,.25732-1.50977,1.08496-1.68457,1.34424-.1748,.25879-.35742,1.55566-.3623,2.33447-.00293,.36328,.05078,.93506,.10352,1.71338,.16406,1.50586,.24902,6.02295-.05273,8.04639s-1.57422,2.17529-3.24414,1.33936l-1.26758-.62744,.0332-5.03516c.02051-3.1665-.08398-4.77588-.31543-4.77686-.17285-.00049-.81152,.46484-.81543,1.03564-.00195,.25977-.17676,.4668-.46582,.51758-.29004,.05127-.80859-.05469-1.44336-.2124-1.44141-.36768-1.08789-1.50879,1.0625-3.42285l2.03516-1.81006,.0791-11.99121c-.05469-.5708-.10938-.93408-.28223-1.09082-.05664-.15576-.1709-.31201-.28711-.36377-.40332-.05371-.63281-.36621-.62891-.93701Z"/><path class="cls-9" d="M891.90088,42.25244c2.58594,2.34424,3.58887,7.95361,2.40918,11.53174-.70605,1.81494-5.00586,5.59082-5.76074,6.00342-.40625,.20605-1.33105,.20312-2.77344-.00928-1.44336-.21191-2.48242-.31934-3.06055-.37305-5.60156-.53711-9.56738-3.87256-10.23438-7.76807-.84082-3.896-.30469-6.38574,1.27051-8.61279,1.5752-2.22754,4.81934-3.51465,6.43945-3.9248,3.47168-.66309,9.125,.80859,11.70996,3.15283Zm-13.47266,10.13086c-.00586,.83057,.28027,1.24658,1.02051,2.91016s.85449,1.97559,3.80176,1.88135c1.44531-.04736,2.48633-.25146,3.06641-.50928,2.5498-1.13379,3.22461-7.15332,1.9209-10.94678-1.30371-3.79395-1.69434-5.87207-6.04102-4.06885-2.14355,.87598-3.43164,3.4668-3.74902,7.77441l-.01953,2.95898Z"/><path class="cls-9" d="M917.23193,56.50586l-3.92969,.14307-.04785,7.16309c-.03125,4.72363-.16406,7.21484-.39551,7.37012-.63672,.25781-3.86523-1.05078-4.6123-1.52051-.3457-.26025-.57422-.62451-.74316-1.19629-.33984-1.09082-.2998-24.76221,.11426-26.26611,.41504-1.50391,.07129-1.97266,2.15137-1.86182,1.03906,.05518,1.9043,.36963,2.53613,.83887,.63281,.46924,1.15137,.73047,1.55566,.73145,.4043,.00146,1.15625-.1001,2.31348-.25195,2.31348-.30371,3.00684-.25,4.56348,.27441,4.55469,1.52002,6.27539,3.49805,6.25195,6.97607-.03418,5.19092-2.64941,7.36279-9.75781,7.59961Zm-3.91797-1.72559l2.42676,.00781c1.90723,.00635,2.54297-.14746,3.18262-.76855,2.21094-2.17285,2.75684-6.1167,1.3877-8.76855-.68457-1.30029-1.08496-1.97607-1.2002-1.97656-1.73535,.25439-3.24023,.61279-4.57227,1.07568l-1.1582,.41113-.06641,10.01904Z"/></g></g></svg>